<svg xmlns="http://www.w3.org/2000/svg" xml:space="preserve" style="fill-rule:evenodd;clip-rule:evenodd;stroke-linejoin:round;stroke-miterlimit:2" viewBox="0 0 2913 592"><path d="M636.612 388.074a3.152 3.152 0 0 0-3.151 3.152v95.575c0 16.013 12.98 28.993 28.993 28.993h969.428a3.152 3.152 0 0 0 3.152-3.152V391.226a3.152 3.152 0 0 0-3.152-3.152h-995.27Z" style="fill:#fff"/><path d="m1631.88 451.934 3.152 20.796h59.672l19.511-47.784 37.168-33.72H1631.88v60.708Z" style="fill:#fff"/><path d="M2080.77 370.708v24.685H6.52v-24.842l2074.25.157Z" style="fill:#fff"/><path d="M2895.36 329.145v116.553l8.17 10.412-.24 46.431-28.886 10.247c-5.69 15.847-22.282 23.395-46.034 25.652l.172-31.363c5.261-49.974-18.366-103.104-88.923-107.868-69.361 4.9-95.268 54.21-88.469 107.988l-19.552 32.353h-499.544l-6.592-28.027v-36.526c-2.501-30.055-19.764-54.566-50.868-75.3l112.563.952c-11.406-149.644-4.087-276.811 23.982-392.504h31.348C2456.75 38 2643.565 96.032 2716.482 270.983l178.878 58.162Z" style="fill:#fff"/><circle cx="2739.61" cy="489.818" r="81.492" style="fill:#fff"/><circle cx="2025" cy="499.023" r="81.492" style="fill:#fff"/><circle cx="1832.88" cy="499.023" r="81.492" style="fill:#fff"/><path d="m1938.1 472.404-17.983-.029c-11.164-37.038-45.566-64.048-86.227-64.048-40.556 0-74.886 26.871-86.142 63.769l-17.998-.03 1.73-48.913 36.416-29.575 367.945-2.352 2.994 81.504-28.181-.046c-11.063-37.195-45.544-64.357-86.319-64.357-40.671 0-75.08 27.023-86.235 64.077Z" style="fill:#fff"/><circle cx="458.273" cy="499.023" r="81.492" style="fill:#fff"/><circle cx="266.149" cy="499.023" r="81.492" style="fill:#fff"/><path d="m371.372 472.404-17.983-.029c-11.164-37.038-45.566-64.048-86.227-64.048-40.556 0-74.886 26.871-86.142 63.769l-17.998-.03 1.73-48.913 36.416-29.575 367.945-2.352 2.994 81.504-28.181-.046c-11.063-37.195-45.544-64.357-86.319-64.357-40.671 0-75.08 27.023-86.235 64.077Z" style="fill:#fff"/><text x="4.501" y="285.852" style="font-family:&quot;Avenir-Black&quot;,&quot;Avenir&quot;,sans-serif;font-weight:800;font-size:288.246px;fill:#fff">T<tspan x="143.436px 260.752px" y="285.852px 285.852px">ru</tspan>cking Nexus</text></svg>